# xmcd
#
# Track frame offsets:
#      150
#      26953
#      53306
#      74994
#      96484
#      119140
#      146049
#      166038
#      191010
#      212010
#      234264
#      256393
#      285091
# 
# Disc length: 4548 seconds
#
# Revision: 10
# Processed by: cddbd v1.4PL0 Copyright (c) Steve Scherf et al.
#
# Submitted via: FreeRIP 1.20
#
DISCID=c211c20d
DTITLE=Santana - Supernatural
DYEAR=2001
DGENRE=Blues
TTITLE0=(Da Le) Yaleo
TTITLE1=Love of My Life feat. Dave Matthews
TTITLE2=Put Your Lights On feat. Everlast
TTITLE3=Africa Bamba
TTITLE4=Smooth feat. Rob Thomas
TTITLE5=Do You Like the Way feat. Lauryn Hill and Cee-Lo
TTITLE6=Maria Maria
TTITLE7=Migra
TTITLE8=Corazon Espinado feat. Mana
TTITLE9=Wishing It Was feat. Eagle-Eye Cherry
TTITLE10=El Farol
TTITLE11=Primavera
TTITLE12=The Calling feat. Eric Clapton
EXTD=YEAR: 2001  ID3G:   0
EXTT0=
EXTT1=
EXTT2=
EXTT3=
EXTT4=
EXTT5=
EXTT6=
EXTT7=
EXTT8=
EXTT9=
EXTT10=
EXTT11=
EXTT12=
PLAYORDER=
